dataset
version=1
nRows=25
nColumns=39
inDegrees=no
endheader
time	sternoclavicular_r2	sternoclavicular_r3	unrotscap_r3	unrotscap_r2	acromioclavicular_r2	acromioclavicular_r3	acromioclavicular_r1	unrothum_r1	unrothum_r3	unrothum_r2	elv_angle	shoulder_elv	shoulder1_r2	shoulder_rot	elbow_flexion	pro_sup	deviation	flexion	cmc_abduction	cmc_flexion	mp_flexion	ip_flexion	mcp2_flexion	mcp2_abduction	pm2_flexion	md2_flexion	mcp3_flexion	mcp3_abduction	pm3_flexion	md3_flexion	mcp4_flexion	mcp4_abduction	pm4_flexion	md4_flexion	mcp5_flexion	mcp5_abduction	pm5_flexion	md5_flexion
0.000000	-0.033396	-0.373368	0.205501	0.188570	0.165153	0.116268	-0.179723	-0.045439	0.063646	0.204521	0.194219	0.027437	0.146525	0.146525	1.384525	0.948554	0.000000	0.000000	0.000000	0.000000	0.000000	0.000000	0.000000	0.000000	0.000000	0.000000	0.000000	0.000000	0.000000	0.000000	0.000000	0.000000	0.000000	0.000000	0.000000	0.000000	0.000000	0.000000
0.005000	-0.033387	-0.373296	0.205522	0.188552	0.165132	0.116280	-0.179741	-0.045340	0.063580	0.204481	0.194184	0.027437	0.146525	0.146525	1.384967	0.955639	0.000000	0.000000	0.000000	0.000000	0.000000	0.000000	0.000000	0.000000	0.000000	0.000000	0.000000	0.000000	0.000000	0.000000	0.000000	0.000000	0.000000	0.000000	0.000000	0.000000	0.000000	0.000000
0.010000	-0.033376	-0.373212	0.205495	0.188521	0.165104	0.116269	-0.179716	-0.045327	0.063562	0.204454	0.194156	0.027437	0.146525	0.146525	1.385409	0.962581	0.000000	0.000000	0.000000	0.000000	0.000000	0.000000	0.000000	0.000000	0.000000	0.000000	0.000000	0.000000	0.000000	0.000000	0.000000	0.000000	0.000000	0.000000	0.000000	0.000000	0.000000	0.000000
0.015000	-0.033363	-0.373123	0.205438	0.188485	0.165073	0.116243	-0.179667	-0.045364	0.063573	0.204434	0.194133	0.027437	0.146525	0.146525	1.385849	0.969383	0.000000	0.000000	0.000000	0.000000	0.000000	0.000000	0.000000	0.000000	0.000000	0.000000	0.000000	0.000000	0.000000	0.000000	0.000000	0.000000	0.000000	0.000000	0.000000	0.000000	0.000000	0.000000
0.020000	-0.033350	-0.373032	0.205366	0.188447	0.165042	0.116209	-0.179603	-0.045431	0.063600	0.204422	0.194114	0.027437	0.146525	0.146525	1.386284	0.976047	0.000000	0.000000	0.000000	0.000000	0.000000	0.000000	0.000000	0.000000	0.000000	0.000000	0.000000	0.000000	0.000000	0.000000	0.000000	0.000000	0.000000	0.000000	0.000000	0.000000	0.000000	0.000000
0.025000	-0.033337	-0.372939	0.205285	0.188408	0.165011	0.116169	-0.179533	-0.045514	0.063637	0.204414	0.194099	0.027437	0.146525	0.146525	1.386714	0.982578	0.000000	0.000000	0.000000	0.000000	0.000000	0.000000	0.000000	0.000000	0.000000	0.000000	0.000000	0.000000	0.000000	0.000000	0.000000	0.000000	0.000000	0.000000	0.000000	0.000000	0.000000	0.000000
0.030000	-0.033324	-0.372846	0.205200	0.188371	0.164983	0.116126	-0.179459	-0.045608	0.063679	0.204410	0.194087	0.027437	0.146525	0.146525	1.387139	0.988976	0.000000	0.000000	0.000000	0.000000	0.000000	0.000000	0.000000	0.000000	0.000000	0.000000	0.000000	0.000000	0.000000	0.000000	0.000000	0.000000	0.000000	0.000000	0.000000	0.000000	0.000000	0.000000
0.035000	-0.033312	-0.372755	0.205112	0.188335	0.164958	0.116080	-0.179384	-0.045706	0.063725	0.204411	0.194079	0.027437	0.146525	0.146525	1.387557	0.995244	0.000000	0.000000	0.000000	0.000000	0.000000	0.000000	0.000000	0.000000	0.000000	0.000000	0.000000	0.000000	0.000000	0.000000	0.000000	0.000000	0.000000	0.000000	0.000000	0.000000	0.000000	0.000000
0.040000	-0.033300	-0.372665	0.205026	0.188303	0.164936	0.116033	-0.179310	-0.045808	0.063771	0.204415	0.194075	0.027437	0.146525	0.146525	1.387970	1.001385	0.000000	0.000000	0.000000	0.000000	0.000000	0.000000	0.000000	0.000000	0.000000	0.000000	0.000000	0.000000	0.000000	0.000000	0.000000	0.000000	0.000000	0.000000	0.000000	0.000000	0.000000	0.000000
0.045000	-0.033289	-0.372578	0.204940	0.188273	0.164916	0.115984	-0.179238	-0.045910	0.063818	0.204423	0.194073	0.027437	0.146525	0.146525	1.388377	1.007401	0.000000	0.000000	0.000000	0.000000	0.000000	0.000000	0.000000	0.000000	0.000000	0.000000	0.000000	0.000000	0.000000	0.000000	0.000000	0.000000	0.000000	0.000000	0.000000	0.000000	0.000000	0.000000
0.050000	-0.033278	-0.372493	0.204856	0.188246	0.164900	0.115935	-0.179169	-0.046012	0.063864	0.204434	0.194074	0.027437	0.146525	0.146525	1.388777	1.013295	0.000000	0.000000	0.000000	0.000000	0.000000	0.000000	0.000000	0.000000	0.000000	0.000000	0.000000	0.000000	0.000000	0.000000	0.000000	0.000000	0.000000	0.000000	0.000000	0.000000	0.000000	0.000000
0.055000	-0.033269	-0.372411	0.204775	0.188223	0.164887	0.115885	-0.179102	-0.046113	0.063909	0.204448	0.194079	0.027437	0.146525	0.146525	1.389170	1.019069	0.000000	0.000000	0.000000	0.000000	0.000000	0.000000	0.000000	0.000000	0.000000	0.000000	0.000000	0.000000	0.000000	0.000000	0.000000	0.000000	0.000000	0.000000	0.000000	0.000000	0.000000	0.000000
0.060000	-0.033260	-0.372331	0.204697	0.188203	0.164878	0.115835	-0.179039	-0.046213	0.063954	0.204466	0.194087	0.027437	0.146525	0.146525	1.389558	1.024726	0.000000	0.000000	0.000000	0.000000	0.000000	0.000000	0.000000	0.000000	0.000000	0.000000	0.000000	0.000000	0.000000	0.000000	0.000000	0.000000	0.000000	0.000000	0.000000	0.000000	0.000000	0.000000
0.065000	-0.033252	-0.372256	0.204623	0.188186	0.164872	0.115785	-0.178980	-0.046311	0.063996	0.204487	0.194097	0.027437	0.146525	0.146525	1.389938	1.030267	0.000000	0.000000	0.000000	0.000000	0.000000	0.000000	0.000000	0.000000	0.000000	0.000000	0.000000	0.000000	0.000000	0.000000	0.000000	0.000000	0.000000	0.000000	0.000000	0.000000	0.000000	0.000000
0.070000	-0.033244	-0.372184	0.204552	0.188173	0.164869	0.115735	-0.178925	-0.046407	0.064037	0.204511	0.194111	0.027437	0.146525	0.146525	1.390312	1.035694	0.000000	0.000000	0.000000	0.000000	0.000000	0.000000	0.000000	0.000000	0.000000	0.000000	0.000000	0.000000	0.000000	0.000000	0.000000	0.000000	0.000000	0.000000	0.000000	0.000000	0.000000	0.000000
0.075000	-0.033238	-0.372115	0.204485	0.188163	0.164870	0.115685	-0.178874	-0.046500	0.064076	0.204538	0.194127	0.027437	0.146525	0.146525	1.390680	1.041011	0.000000	0.000000	0.000000	0.000000	0.000000	0.000000	0.000000	0.000000	0.000000	0.000000	0.000000	0.000000	0.000000	0.000000	0.000000	0.000000	0.000000	0.000000	0.000000	0.000000	0.000000	0.000000
0.080000	-0.033233	-0.372051	0.204422	0.188157	0.164875	0.115635	-0.178827	-0.046591	0.064113	0.204568	0.194146	0.027437	0.146525	0.146525	1.391040	1.046219	0.000000	0.000000	0.000000	0.000000	0.000000	0.000000	0.000000	0.000000	0.000000	0.000000	0.000000	0.000000	0.000000	0.000000	0.000000	0.000000	0.000000	0.000000	0.000000	0.000000	0.000000	0.000000
0.085000	-0.033228	-0.371991	0.204364	0.188154	0.164883	0.115585	-0.178786	-0.046679	0.064147	0.204601	0.194168	0.027437	0.146525	0.146525	1.391393	1.051320	0.000000	0.000000	0.000000	0.000000	0.000000	0.000000	0.000000	0.000000	0.000000	0.000000	0.000000	0.000000	0.000000	0.000000	0.000000	0.000000	0.000000	0.000000	0.000000	0.000000	0.000000	0.000000
0.090000	-0.033225	-0.371936	0.204311	0.188155	0.164894	0.115535	-0.178749	-0.046764	0.064179	0.204637	0.194193	0.027437	0.146525	0.146525	1.391740	1.056317	0.000000	0.000000	0.000000	0.000000	0.000000	0.000000	0.000000	0.000000	0.000000	0.000000	0.000000	0.000000	0.000000	0.000000	0.000000	0.000000	0.000000	0.000000	0.000000	0.000000	0.000000	0.000000
0.095000	-0.033222	-0.371886	0.204263	0.188159	0.164909	0.115487	-0.178718	-0.046845	0.064209	0.204675	0.194220	0.027437	0.146525	0.146525	1.392079	1.061212	0.000000	0.000000	0.000000	0.000000	0.000000	0.000000	0.000000	0.000000	0.000000	0.000000	0.000000	0.000000	0.000000	0.000000	0.000000	0.000000	0.000000	0.000000	0.000000	0.000000	0.000000	0.000000
0.100000	-0.033221	-0.371840	0.204220	0.188167	0.164927	0.115438	-0.178692	-0.046923	0.064235	0.204717	0.194250	0.027437	0.146525	0.146525	1.392412	1.066006	0.000000	0.000000	0.000000	0.000000	0.000000	0.000000	0.000000	0.000000	0.000000	0.000000	0.000000	0.000000	0.000000	0.000000	0.000000	0.000000	0.000000	0.000000	0.000000	0.000000	0.000000	0.000000
0.105000	-0.033220	-0.371800	0.204183	0.188178	0.164949	0.115391	-0.178672	-0.046997	0.064259	0.204760	0.194282	0.027437	0.146525	0.146525	1.392737	1.070701	0.000000	0.000000	0.000000	0.000000	0.000000	0.000000	0.000000	0.000000	0.000000	0.000000	0.000000	0.000000	0.000000	0.000000	0.000000	0.000000	0.000000	0.000000	0.000000	0.000000	0.000000	0.000000
0.110000	-0.033221	-0.371765	0.204151	0.188194	0.164974	0.115345	-0.178657	-0.047066	0.064279	0.204807	0.194317	0.027437	0.146525	0.146525	1.393055	1.075300	0.000000	0.000000	0.000000	0.000000	0.000000	0.000000	0.000000	0.000000	0.000000	0.000000	0.000000	0.000000	0.000000	0.000000	0.000000	0.000000	0.000000	0.000000	0.000000	0.000000	0.000000	0.000000
0.115000	-0.033222	-0.371736	0.204125	0.188212	0.165002	0.115299	-0.178649	-0.047132	0.064296	0.204855	0.194354	0.027437	0.146525	0.146525	1.393365	1.079805	0.000000	0.000000	0.000000	0.000000	0.000000	0.000000	0.000000	0.000000	0.000000	0.000000	0.000000	0.000000	0.000000	0.000000	0.000000	0.000000	0.000000	0.000000	0.000000	0.000000	0.000000	0.000000
0.120000	-0.033225	-0.371713	0.204106	0.188234	0.165033	0.115255	-0.178647	-0.047193	0.064310	0.204906	0.194393	0.027437	0.146525	0.146525	1.393668	1.084216	0.000000	0.000000	0.000000	0.000000	0.000000	0.000000	0.000000	0.000000	0.000000	0.000000	0.000000	0.000000	0.000000	0.000000	0.000000	0.000000	0.000000	0.000000	0.000000	0.000000	0.000000	0.000000
